<!--- SPDX-FileCopyrightText: Copyright 2021 Arm Limited and/or its affiliates <open-source-office@arm.com> -->
<!--- SPDX-License-Identifier: Apache-2.0 -->
<?xml version="1.0" encoding="UTF-8" standalone="no"?>
<!-- Generator: Adobe Illustrator 21.1.0, SVG Export Plug-In . SVG Version: 6.00 Build 0)  -->

<svg
   xmlns:dc="http://purl.org/dc/elements/1.1/"
   xmlns:cc="http://creativecommons.org/ns#"
   xmlns:rdf="http://www.w3.org/1999/02/22-rdf-syntax-ns#"
   xmlns:svg="http://www.w3.org/2000/svg"
   xmlns="http://www.w3.org/2000/svg"
   xmlns:sodipodi="http://sodipodi.sourceforge.net/DTD/sodipodi-0.dtd"
   xmlns:inkscape="http://www.inkscape.org/namespaces/inkscape"
   version="1.1"
   id="Layer_1"
   x="0px"
   y="0px"
   viewBox="0 0 236.5 72.099998"
   xml:space="preserve"
   sodipodi:docname="Arm_logo_white_RGB.svg"
   width="236.5"
   height="72.099998"
   inkscape:version="0.92.5 (2060ec1f9f, 2020-04-08)"><metadata
   id="metadata24"><rdf:RDF><cc:Work
       rdf:about=""><dc:format>image/svg+xml</dc:format><dc:type
         rdf:resource="http://purl.org/dc/dcmitype/StillImage" /></cc:Work></rdf:RDF></metadata><defs
   id="defs22" /><sodipodi:namedview
   pagecolor="#ffffff"
   bordercolor="#666666"
   borderopacity="1"
   objecttolerance="10"
   gridtolerance="10"
   guidetolerance="10"
   inkscape:pageopacity="0"
   inkscape:pageshadow="2"
   inkscape:window-width="532"
   inkscape:window-height="414"
   id="namedview20"
   showgrid="false"
   inkscape:zoom="0.38562092"
   inkscape:cx="118"
   inkscape:cy="36"
   inkscape:window-x="72"
   inkscape:window-y="27"
   inkscape:window-maximized="0"
   inkscape:current-layer="Layer_1" />
<style
   type="text/css"
   id="style15">
	.st0{fill:#FFFFFF;}
</style>
<path
   class="st0"
   d="M 53.4,1.9 H 69.3 V 70 H 53.4 V 62.9 C 46.4,71 37.9,72.1 33,72.1 12,72.1 0,54.6 0,35.9 0,13.7 15.2,0.1 33.2,0.1 c 5,0 13.8,1.3 20.2,9.7 z M 16.2,36.2 c 0,11.8 7.4,21.7 18.9,21.7 10,0 19.3,-7.3 19.3,-21.5 0,-14.9 -9.2,-22 -19.3,-22 -11.5,0 -18.9,9.7 -18.9,21.8 z M 88.1,1.9 H 104 V 8 c 1.8,-2.1 4.4,-4.4 6.6,-5.7 3.1,-1.8 6.1,-2.3 9.7,-2.3 3.9,0 8.1,0.6 12.5,3.2 l -6.5,14.4 c -3.6,-2.3 -6.5,-2.4 -8.1,-2.4 -3.4,0 -6.8,0.5 -9.9,3.7 -4.4,4.7 -4.4,11.2 -4.4,15.7 V 69.9 H 88 v -68 z m 54.9,0 h 15.9 v 6.3 c 5.3,-6.5 11.6,-8.1 16.8,-8.1 7.1,0 13.8,3.4 17.6,10 5.7,-8.1 14.2,-10 20.2,-10 8.3,0 15.5,3.9 19.4,10.7 1.3,2.3 3.6,7.3 3.6,17.2 V 70.1 H 220.6 V 32.6 c 0,-7.6 -0.8,-10.7 -1.5,-12.1 -1,-2.6 -3.4,-6 -9.1,-6 -3.9,0 -7.3,2.1 -9.4,5 -2.8,3.9 -3.1,9.7 -3.1,15.5 V 70.1 H 181.6 V 32.6 c 0,-7.6 -0.8,-10.7 -1.5,-12.1 -1,-2.6 -3.4,-6 -9.1,-6 -3.9,0 -7.3,2.1 -9.4,5 -2.8,3.9 -3.1,9.7 -3.1,15.5 V 70.1 H 143 Z"
   id="path17"
   inkscape:connector-curvature="0"
   style="fill:#ffffff" />
</svg>
